<svg xmlns="http://www.w3.org/2000/svg" width="28" height="28" viewBox="0 0 28 28">
    <g data-name="&lt;-">
        <path data-name="Union 7" d="M-963.414-3949.586-974-3960.171l-10.586 10.585a2 2 0 0 1-.662.439 2 2 0 0 1-.752.147 2 2 0 0 1-.753-.147 2 2 0 0 1-.662-.439 1.991 1.991 0 0 1-.439-.662A2 2 0 0 1-988-3951a2 2 0 0 1 .147-.753 2.012 2.012 0 0 1 .439-.662l10.585-10.585-10.586-10.585a2 2 0 0 1 0-2.829 2 2 0 0 1 2.829 0l10.586 10.585 10.586-10.585a2.052 2.052 0 0 1 .313-.257 2 2 0 0 1 .348-.183 1.968 1.968 0 0 1 .37-.11A1.973 1.973 0 0 1-962-3977a1.963 1.963 0 0 1 .381.037 1.977 1.977 0 0 1 .371.11 2.032 2.032 0 0 1 .347.183 2.059 2.059 0 0 1 .314.257 1.991 1.991 0 0 1 .439.662 2.015 2.015 0 0 1 .148.751 2.019 2.019 0 0 1-.146.753 2.015 2.015 0 0 1-.439.662L-971.171-3963l10.586 10.585a2 2 0 0 1 0 2.829A2 2 0 0 1-962-3949a1.994 1.994 0 0 1-1.414-.586z" transform="translate(988 3977)" style="fill:#fff"/>
    </g>
</svg>
